<svg>
    <g id="Layer_1">
        <path stroke="null" id="svg_7" d="m259.42475,18.78341c-31.72734,-1.77273 -58.62892,22.56066 -60.40165,53.94709c-0.07576,1.21212 -0.09091,2.41667 -0.08333,3.62122l-170.22765,0l-9.71214,0l0,9.71214c0,20.71217 10.02275,40.70463 28.21218,56.30315c15.31822,13.12882 35.86371,22.62884 58.53801,27.19703l0,14.81821c0,10.70457 8.71214,19.40913 19.41671,19.40913l1.59091,0l0,88.96232c-19.33338,0.63637 -43.091,3.45455 -43.091,13.49245c0,11.87124 33.26522,13.65155 53.0986,13.65155s53.10618,-1.77273 53.10618,-13.65155c0,-10.0379 -23.7652,-12.86366 -43.091,-13.49245l0,-88.96232l1.84849,0c10.70457,0 19.41671,-8.70456 19.41671,-19.40913l0,-14.68943c30.21976,-5.91668 55.25012,-20.28035 70.6744,-39.16675c4.56062,1.45455 9.33335,2.34091 14.23488,2.62122c1.09849,0.06061 2.1894,0.09091 3.27273,0.09091c30.3334,0 55.41679,-23.7349 57.12891,-54.038c1.79546,-31.53795 -22.40156,-58.63649 -53.93194,-60.4168zm-82.23503,287.47033c-6.5682,1.88637 -19.98489,3.94698 -39.65918,3.94698s-33.09098,-2.05303 -39.65918,-3.94698c6.5682,-1.88637 19.98489,-3.94698 39.65918,-3.94698s33.09856,2.05303 39.65918,3.94698zm56.88649,-185.46253c-1.43182,1.99243 -2.97728,3.93183 -4.6288,5.82577c-15.61367,17.75761 -41.15161,30.67431 -71.12137,34.85614c0,0.08333 0.02273,0.15909 0.02273,0.25l0,22.65914c0,5.36365 -4.34849,9.70457 -9.71214,9.70457l-23.46217,0c-5.36365,0 -9.71214,-4.34092 -9.71214,-9.70457l0,-22.65914c0,-0.11364 0.0303,-0.2197 0.0303,-0.33333c-49.51526,-7.14396 -86.78049,-38.1516 -86.78049,-75.3335c42.55312,0 116.78813,0 171.11401,0c2.53031,0 5.01516,0 7.45456,0c15.10609,0 28.3637,0 38.51524,0c-0.01515,12.5076 -4.24243,24.30308 -11.71972,34.73492zm72.01531,-42.01524c-1.53788,27.40158 -25.03036,48.67435 -52.71981,47.08344c-3.41667,-0.18939 -6.76517,-0.73485 -10.00002,-1.59091c7.78032,-11.59093 12.12881,-24.59096 12.12881,-38.2122l0,-9.70457l-9.71214,0l-39.50766,0c-0.01515,-1.06818 -0.04545,-2.13637 0.01515,-3.21213c1.49243,-26.44703 23.39399,-47.16677 49.86375,-47.16677c0.94697,0 1.89394,0.0303 2.85607,0.08333c13.33336,0.75 25.56824,6.65153 34.4622,16.61367c8.88638,9.95457 13.37882,22.78035 12.61366,36.10614z"/>
        <path stroke="null" id="svg_8" d="m252.97019,60.45775l1.35606,-23.88642c-4.25001,0.19697 -8.3182,1.09091 -12.12124,2.54546l10.76518,21.34096z"/>
        <path stroke="null" id="svg_9" d="m225.67467,51.06379l19.97732,13.08336l-10.7576,-21.3258c-3.48486,2.25 -6.5985,5.03031 -9.21972,8.24244z"/>
        <path stroke="null" id="svg_10" d="m217.27314,69.65473l23.88642,1.34849l-20.00004,-13.09851c-1.86364,3.62122 -3.21213,7.56062 -3.88637,11.75003z"/>
        <path stroke="null" id="svg_11" d="m289.32633,54.6547c-2.25,-3.48486 -5.03031,-6.5985 -8.24244,-9.21972l-13.09094,19.97732l21.33338,-10.7576z"/>
        <path stroke="null" id="svg_12" d="m262.50051,37.04103l-1.35606,23.88642l13.09851,-19.99247c-3.61364,-1.87122 -7.55305,-3.2197 -11.74245,-3.89395z"/>
        <path stroke="null" id="svg_13" d="m271.68993,72.7305l23.88642,1.34849c-0.19697,-4.24243 -1.10606,-8.30305 -2.54546,-12.11366l-21.34096,10.76518z"/>
        <path stroke="null" id="svg_14" d="m277.50055,109.09422c3.48486,-2.24243 6.5985,-5.02274 9.21972,-8.23487l-19.97732,-13.09094l10.7576,21.3258z"/>
        <path stroke="null" id="svg_15" d="m258.07626,115.34423c4.24243,-0.19697 8.30305,-1.09849 12.11366,-2.54546l-10.76518,-21.34096l-1.34849,23.88642z"/>
        <path stroke="null" id="svg_16" d="m291.22027,94.01085c1.87879,-3.62122 3.22728,-7.56062 3.90152,-11.75003l-23.88642,-1.34849l19.98489,13.09851z"/>
        <path stroke="null" fill="#d66b6b" id="svg_17" d="m171.34488,138.22776c-23.7617,0 -61.77884,0 -81.77666,0c2.07309,8.05667 21.73985,16.11573 47.16869,16.11573c19.09528,0 34.44638,-4.03312 42.15938,-9.83852c0.81584,-0.61551 1.53314,-1.25017 2.1795,-1.9016c1.36761,-1.38908 2.33321,-2.85719 2.83375,-4.3756c-2.38051,0 -5.19455,0 -8.33571,0c-1.3479,0 -2.7628,0 -4.22894,0z"/>
        <g stroke="null" transform="matrix(7.575774178538964,0,0,7.575774178538964,877.6440247973605,847.5599489363846) " id="svg_18"/>
        <g stroke="null" transform="matrix(7.575774178538964,0,0,7.575774178538964,877.6440247973605,847.5599489363846) " id="svg_19"/>
        <g stroke="null" transform="matrix(7.575774178538964,0,0,7.575774178538964,877.6440247973605,847.5599489363846) " id="svg_20"/>
        <g stroke="null" transform="matrix(7.575774178538964,0,0,7.575774178538964,877.6440247973605,847.5599489363846) " id="svg_21"/>
        <g stroke="null" transform="matrix(7.575774178538964,0,0,7.575774178538964,877.6440247973605,847.5599489363846) " id="svg_22"/>
        <g stroke="null" transform="matrix(7.575774178538964,0,0,7.575774178538964,877.6440247973605,847.5599489363846) " id="svg_23"/>
        <g stroke="null" transform="matrix(7.575774178538964,0,0,7.575774178538964,877.6440247973605,847.5599489363846) " id="svg_24"/>
        <g stroke="null" transform="matrix(7.575774178538964,0,0,7.575774178538964,877.6440247973605,847.5599489363846) " id="svg_25"/>
        <g stroke="null" transform="matrix(7.575774178538964,0,0,7.575774178538964,877.6440247973605,847.5599489363846) " id="svg_26"/>
        <g stroke="null" transform="matrix(7.575774178538964,0,0,7.575774178538964,877.6440247973605,847.5599489363846) " id="svg_27"/>
        <g stroke="null" transform="matrix(7.575774178538964,0,0,7.575774178538964,877.6440247973605,847.5599489363846) " id="svg_28"/>
        <g stroke="null" transform="matrix(7.575774178538964,0,0,7.575774178538964,877.6440247973605,847.5599489363846) " id="svg_29"/>
        <g stroke="null" transform="matrix(7.575774178538964,0,0,7.575774178538964,877.6440247973605,847.5599489363846) " id="svg_30"/>
        <g stroke="null" transform="matrix(7.575774178538964,0,0,7.575774178538964,877.6440247973605,847.5599489363846) " id="svg_31"/>
        <g stroke="null" transform="matrix(7.575774178538964,0,0,7.575774178538964,877.6440247973605,847.5599489363846) " id="svg_32"/>
    </g>
</svg>